<svg width="96" height="96" xmlns="http://www.w3.org/2000/svg" xmlns:xlink="http://www.w3.org/1999/xlink" xml:space="preserve" overflow="hidden"><defs><clipPath id="clip0"><rect x="592" y="312" width="96" height="96"/></clipPath></defs><g clip-path="url(#clip0)" transform="translate(-592 -312)"><path d="M676 334 602 334 602 405 678 405 678 334ZM676 403 604 403 604 336 676 336Z"/><path d="M630.533 314 621 327 640.067 327ZM630.533 317.382 636.12 325 624.947 325Z"/><path d="M659.066 314.046 640.066 314.046 649.567 327ZM655.119 316.046 649.567 323.618 644.014 316.046Z"/><path d="M632.586 362C632.586 361.448 632.138 361 631.586 361 631.034 361 630.586 361.448 630.586 362L630.586 369.413 633.77 381.013 621.4 381.013 624.585 369.545 624.585 361.996C624.585 361.444 624.137 360.996 623.585 360.996 623.033 360.996 622.585 361.444 622.585 361.996L622.585 369.273 618.769 383.013 622.585 383.013 622.585 397 632.585 397 632.585 383.017 636.4 383.017 632.589 369.276ZM624.586 383.017 626.586 383.017 626.586 395 624.586 395ZM630.586 395 628.586 395 628.586 383.017 630.586 383.017Z"/><path d="M627.586 352C630.347 352 632.586 349.761 632.586 347 632.586 344.239 630.347 342 627.586 342 624.825 342 622.586 344.239 622.586 347 622.589 349.76 624.826 351.997 627.586 352ZM627.586 344C629.243 344 630.586 345.343 630.586 347 630.586 348.657 629.243 350 627.586 350 625.929 350 624.586 348.657 624.586 347 624.586 345.343 625.929 344 627.586 344Z"/><path d="M617.817 376.219C618.31 376.469 618.912 376.272 619.162 375.779 619.412 375.286 619.215 374.684 618.722 374.434 618.19 374.128 617.91 373.519 618.022 372.916L620.53 358.675C620.585 358.488 620.689 358.318 620.83 358.183 621.892 357.384 623.097 356.795 624.379 356.446 625.418 356.168 626.487 356.018 627.563 356 628.604 356.011 629.638 356.159 630.64 356.442 631.926 356.791 633.135 357.382 634.2 358.183 634.34 358.288 634.44 358.438 634.483 358.607L637.05 372.907C637.164 373.512 636.884 374.124 636.35 374.432 635.865 374.696 635.685 375.303 635.949 375.788 636.201 376.252 636.771 376.44 637.25 376.217 638.569 375.511 639.282 374.035 639.016 372.563L636.44 358.187C636.292 357.549 635.926 356.983 635.404 356.587 634.134 355.634 632.694 354.931 631.161 354.516 629.989 354.186 628.778 354.014 627.561 354.004 626.315 354.022 625.076 354.194 623.872 354.515 622.355 354.923 620.93 355.615 619.672 356.555 619.12 356.98 618.731 357.582 618.572 358.261L616.049 372.575C615.787 374.044 616.501 375.515 617.817 376.219Z"/><path d="M656.465 361C655.913 361 655.465 361.448 655.465 362L655.465 395 653.465 395 653.465 376 651.465 376 651.465 395 649.465 395 649.465 362C649.465 361.448 649.017 361 648.465 361 647.913 361 647.465 361.448 647.465 362L647.465 397 657.465 397 657.465 362C657.465 361.448 657.017 361 656.465 361Z"/><path d="M652.463 352C655.224 352 657.463 349.761 657.463 347 657.463 344.239 655.224 342 652.463 342 649.702 342 647.463 344.239 647.463 347 647.466 349.76 649.703 351.997 652.463 352ZM652.463 344C654.12 344 655.463 345.343 655.463 347 655.463 348.657 654.12 350 652.463 350 650.806 350 649.463 348.657 649.463 347 649.463 345.343 650.806 344 652.463 344Z"/><path d="M642.743 376.219C643.228 376.483 643.835 376.303 644.099 375.818 644.363 375.332 644.183 374.725 643.698 374.462 643.68 374.452 643.662 374.443 643.643 374.434 643.112 374.127 642.831 373.519 642.943 372.916L645.453 358.672C645.508 358.486 645.612 358.317 645.753 358.183 646.815 357.384 648.018 356.795 649.3 356.446 650.34 356.168 651.41 356.018 652.487 356 653.528 356.01 654.562 356.159 655.564 356.442 656.852 356.79 658.062 357.381 659.129 358.183 659.269 358.288 659.369 358.438 659.412 358.607L661.979 372.907C662.094 373.513 661.813 374.124 661.279 374.432 660.786 374.682 660.589 375.284 660.839 375.777 661.089 376.27 661.691 376.467 662.184 376.217 663.503 375.511 664.216 374.035 663.95 372.563L661.366 358.187C661.218 357.549 660.852 356.983 660.33 356.587 659.06 355.633 657.62 354.93 656.086 354.516 654.914 354.186 653.703 354.014 652.486 354.004 651.241 354.022 650.002 354.194 648.799 354.515 647.282 354.922 645.857 355.615 644.599 356.555 644.046 356.979 643.657 357.582 643.499 358.261L640.975 372.575C640.713 374.044 641.427 375.515 642.743 376.219Z"/></g></svg>